<svg xmlns="http://www.w3.org/2000/svg" width="93.231" height="118.399"><path d="M6.07 57.563a21.168 21.168 0 0 0 22.484 4.08 20.819 20.819 0 0 0 12.6-15.451 20.758 20.758 0 0 1-12.577 23.1 21.127 21.127 0 0 1-15.306.315 12.436 12.436 0 0 1-5.2-4.395 13.124 13.124 0 0 1-2.001-7.649z" fill="#54c7f5"/><path d="M12.663 98.513v3.51H4.59v4.59h6.183v3.375H4.59v4.685h8.073v3.51H0v-19.67zm12.69 8.991a2.314 2.314 0 0 1-.364.365.8.8 0 0 1-.5.135 1.075 1.075 0 0 1-.56-.148l-.56-.331a4.25 4.25 0 0 0-.729-.331 3.138 3.138 0 0 0-1.04-.148 2.912 2.912 0 0 0-1.33.283 2.463 2.463 0 0 0-.925.81 3.7 3.7 0 0 0-.54 1.289 7.7 7.7 0 0 0-.175 1.721 5.245 5.245 0 0 0 .776 3.092 2.491 2.491 0 0 0 2.14 1.08 2.991 2.991 0 0 0 1.154-.182 3.5 3.5 0 0 0 .722-.4l.547-.412a1.011 1.011 0 0 1 .628-.189.865.865 0 0 1 .756.365l1.215 1.5a6.611 6.611 0 0 1-1.363 1.201 6.84 6.84 0 0 1-1.465.729 7.56 7.56 0 0 1-1.505.365 11.083 11.083 0 0 1-1.472.1 6.314 6.314 0 0 1-2.45-.486 6 6 0 0 1-2.052-1.411 6.757 6.757 0 0 1-1.4-2.275 8.521 8.521 0 0 1-.52-3.078 8.646 8.646 0 0 1 .452-2.828 6.421 6.421 0 0 1 1.337-2.282 6.214 6.214 0 0 1 2.187-1.519 7.664 7.664 0 0 1 3.017-.554 7.356 7.356 0 0 1 2.889.526 6.932 6.932 0 0 1 2.237 1.542zm9.261-3.537a8.085 8.085 0 0 1 2.9.5 6.366 6.366 0 0 1 2.248 1.431 6.446 6.446 0 0 1 1.458 2.261 8.158 8.158 0 0 1 .52 2.99 8.305 8.305 0 0 1-.52 3.017 6.491 6.491 0 0 1-1.458 2.282 6.4 6.4 0 0 1-2.245 1.445 7.989 7.989 0 0 1-2.9.506 8.082 8.082 0 0 1-2.926-.506 6.522 6.522 0 0 1-2.268-1.445 6.4 6.4 0 0 1-1.472-2.282 8.305 8.305 0 0 1-.52-3.017 8.158 8.158 0 0 1 .52-2.99 6.353 6.353 0 0 1 1.472-2.261 6.491 6.491 0 0 1 2.268-1.431 8.18 8.18 0 0 1 2.923-.499zm0 11.326a2.377 2.377 0 0 0 2.126-1.018 5.637 5.637 0 0 0 .682-3.1 5.6 5.6 0 0 0-.682-3.092 2.382 2.382 0 0 0-2.126-1.012 2.441 2.441 0 0 0-2.173 1.012 5.557 5.557 0 0 0-.688 3.092 5.592 5.592 0 0 0 .688 3.1 2.436 2.436 0 0 0 2.173 1.019zm19.48-6.1q.27.513.52 1.067t.479 1.134q.229-.594.486-1.154t.526-1.087l5.049-9.936a1.65 1.65 0 0 1 .277-.4.906.906 0 0 1 .317-.209 1.33 1.33 0 0 1 .4-.081q.223-.014.52-.014h3.482v19.67h-4.023V106.87q0-.823.081-1.782l-5.211 10.111a1.717 1.717 0 0 1-.655.716 1.811 1.811 0 0 1-.938.243h-.624a1.811 1.811 0 0 1-.938-.243 1.717 1.717 0 0 1-.655-.716l-5.235-10.125q.054.473.081.938t.027.857v11.314h-4.023v-19.67h3.483q.3 0 .52.014a1.33 1.33 0 0 1 .4.081.906.906 0 0 1 .317.209 1.65 1.65 0 0 1 .277.4zm24.962 8.99a1.961 1.961 0 0 1-.9-.162 1.238 1.238 0 0 1-.506-.675l-.3-.77q-.526.446-1.012.783a6.417 6.417 0 0 1-1.006.574 4.967 4.967 0 0 1-1.102.35 6.813 6.813 0 0 1-1.3.115 5.712 5.712 0 0 1-1.742-.25 3.633 3.633 0 0 1-1.33-.736 3.235 3.235 0 0 1-.844-1.208 4.357 4.357 0 0 1-.3-1.667 3.5 3.5 0 0 1 .378-1.525 3.763 3.763 0 0 1 1.31-1.424 8.323 8.323 0 0 1 2.511-1.073 16.848 16.848 0 0 1 3.982-.486v-.594a2.567 2.567 0 0 0-.506-1.775 1.862 1.862 0 0 0-1.438-.547 3.814 3.814 0 0 0-1.215.162 5.462 5.462 0 0 0-.844.365q-.371.2-.722.365a1.984 1.984 0 0 1-.837.162 1.265 1.265 0 0 1-.736-.209 1.554 1.554 0 0 1-.479-.52l-.756-1.309a8.51 8.51 0 0 1 2.818-1.669 9.868 9.868 0 0 1 3.314-.547 6.061 6.061 0 0 1 2.288.412 4.924 4.924 0 0 1 1.728 1.148 5.014 5.014 0 0 1 1.087 1.748 6.283 6.283 0 0 1 .378 2.214v8.748zm-4.806-2.551a3.321 3.321 0 0 0 1.417-.283 4.318 4.318 0 0 0 1.229-.918v-1.948a13.894 13.894 0 0 0-2.065.216 5.017 5.017 0 0 0-1.283.405 1.552 1.552 0 0 0-.655.553 1.31 1.31 0 0 0-.182.675 1.173 1.173 0 0 0 .391 1.006 1.91 1.91 0 0 0 1.148.294zm9.693 2.551v-14h2.484a2.118 2.118 0 0 1 .52.054.912.912 0 0 1 .351.169.72.72 0 0 1 .216.3 2.739 2.739 0 0 1 .128.459l.229 1.309a6.86 6.86 0 0 1 1.728-1.877 3.511 3.511 0 0 1 2.093-.689 2.411 2.411 0 0 1 1.539.459l-.54 3.078a.6.6 0 0 1-.216.4.733.733 0 0 1-.432.115 2.865 2.865 0 0 1-.54-.061 4.186 4.186 0 0 0-.783-.061 2.874 2.874 0 0 0-2.592 1.755v8.59z" fill="#003189"/><path d="M5.024 50.349a30.838 30.838 0 0 0 32.427 7.588 30.391 30.391 0 0 0 19.5-21.571 30.3 30.3 0 0 1-20.037 32.7 30.794 30.794 0 0 1-22.305-.664 18.09 18.09 0 0 1-7.241-6.779c-3.153-5.011-2.344-11.274-2.344-11.274z" fill="#009cdc"/><path d="M26.385 60.721a35.991 35.991 0 0 0 43.2-26.612 35.48 35.48 0 0 0 .831-5.3 35.165 35.165 0 0 1 3.353 24.938A36 36 0 0 1 2.858 42.893a35.84 35.84 0 0 0 23.527 17.828z" fill="#0063b0"/><path d="M30.789 63.603a43.8 43.8 0 0 0 52.573-32.387 43.291 43.291 0 0 0 1.059-7.128 42.8 42.8 0 0 1 3.921 30.062A43.813 43.813 0 0 1 1.996 41.619a43.618 43.618 0 0 0 28.793 21.984z" fill="#003189"/><path d="M6.147 57.563a21.168 21.168 0 0 0 22.484 4.08 20.82 20.82 0 0 0 12.6-15.451 20.757 20.757 0 0 1-12.577 23.1 21.127 21.127 0 0 1-15.306.315 12.433 12.433 0 0 1-5.2-4.395 13.12 13.12 0 0 1-2.001-7.649z" fill="#54c7f5" opacity=".3"/><path d="M5.1 50.349a30.838 30.838 0 0 0 32.427 7.588 30.391 30.391 0 0 0 19.5-21.571 30.3 30.3 0 0 1-20.037 32.7 30.8 30.8 0 0 1-22.306-.664 18.09 18.09 0 0 1-7.241-6.779C4.292 56.612 5.1 50.349 5.1 50.349z" fill="#009cdc" opacity=".3"/><path d="M26.462 60.721a35.991 35.991 0 0 0 43.2-26.612 35.539 35.539 0 0 0 .831-5.3 35.162 35.162 0 0 1 3.352 24.938A36 36 0 0 1 2.934 42.893a35.841 35.841 0 0 0 23.528 17.828z" fill="#0063b0" opacity=".3"/><path d="M30.865 63.603a43.8 43.8 0 0 0 52.574-32.387 43.241 43.241 0 0 0 1.059-7.128A42.793 42.793 0 0 1 88.42 54.15 43.813 43.813 0 0 1 2.074 41.619a43.62 43.62 0 0 0 28.791 21.984z" fill="#003189" opacity=".3"/><path d="M89.849 41.301A43.951 43.951 0 1 1 43.723.057a43.678 43.678 0 0 1 46.126 41.244z" fill="#00a1ed" opacity=".05"/></svg>