<svg xmlns="http://www.w3.org/2000/svg" width="96" height="124.183" viewBox="0 0 96 124.183"><g transform="translate(-15.571 -61.419)"><path d="M23.261,118.982a21.168,21.168,0,0,0,22.484,4.08,20.819,20.819,0,0,0,12.6-15.451,20.758,20.758,0,0,1-12.577,23.1,21.127,21.127,0,0,1-15.306.315,12.436,12.436,0,0,1-5.2-4.395A13.124,13.124,0,0,1,23.261,118.982Z" fill="#54c7f5"/><text transform="translate(15.571 179.602)" fill="#003189" font-size="27" font-family="Lato-Black, Lato Black" font-weight="800"><tspan x="0" y="0">EcoMar</tspan></text><path d="M22.215,111.768a30.838,30.838,0,0,0,32.427,7.588,30.391,30.391,0,0,0,19.5-21.571,30.3,30.3,0,0,1-20.037,32.7,30.794,30.794,0,0,1-22.305-.664,18.09,18.09,0,0,1-7.241-6.779C21.406,118.031,22.215,111.768,22.215,111.768Z" fill="#009cdc"/><path d="M43.576,122.14a35.991,35.991,0,0,0,43.2-26.612,35.48,35.48,0,0,0,.831-5.3,35.165,35.165,0,0,1,3.353,24.938,36,36,0,0,1-70.911-10.854A35.84,35.84,0,0,0,43.576,122.14Z" fill="#0063b0"/><path d="M47.98,125.022a43.8,43.8,0,0,0,52.573-32.387,43.291,43.291,0,0,0,1.059-7.128,42.8,42.8,0,0,1,3.921,30.062,43.813,43.813,0,0,1-86.346-12.531A43.618,43.618,0,0,0,47.98,125.022Z" fill="#003189"/><path d="M23.338,118.982a21.168,21.168,0,0,0,22.484,4.08,20.82,20.82,0,0,0,12.6-15.451,20.757,20.757,0,0,1-12.577,23.1,21.127,21.127,0,0,1-15.306.315,12.433,12.433,0,0,1-5.2-4.395A13.12,13.12,0,0,1,23.338,118.982Z" fill="#54c7f5" opacity="0.3"/><path d="M22.291,111.768a30.838,30.838,0,0,0,32.427,7.588,30.391,30.391,0,0,0,19.5-21.571,30.3,30.3,0,0,1-20.037,32.7,30.8,30.8,0,0,1-22.306-.664,18.09,18.09,0,0,1-7.241-6.779C21.483,118.031,22.291,111.768,22.291,111.768Z" fill="#009cdc" opacity="0.3"/><path d="M43.653,122.14a35.991,35.991,0,0,0,43.2-26.612,35.539,35.539,0,0,0,.831-5.3,35.162,35.162,0,0,1,3.352,24.938,36,36,0,0,1-70.911-10.854A35.841,35.841,0,0,0,43.653,122.14Z" fill="#0063b0" opacity="0.3"/><path d="M48.056,125.022A43.8,43.8,0,0,0,100.63,92.635a43.241,43.241,0,0,0,1.059-7.128,42.793,42.793,0,0,1,3.922,30.062,43.813,43.813,0,0,1-86.346-12.531A43.62,43.62,0,0,0,48.056,125.022Z" fill="#003189" opacity="0.3"/><path d="M107.04,102.72A43.951,43.951,0,1,1,60.914,61.476,43.678,43.678,0,0,1,107.04,102.72Z" fill="#00a1ed" opacity="0.05"/></g></svg>