<svg xmlns="http://www.w3.org/2000/svg" width="96" height="124.183"><path d="M7.69 57.563a21.168 21.168 0 0 0 22.484 4.08 20.819 20.819 0 0 0 12.6-15.451 20.758 20.758 0 0 1-12.577 23.1 21.127 21.127 0 0 1-15.306.315 12.436 12.436 0 0 1-5.2-4.395 13.124 13.124 0 0 1-2.001-7.649z" fill="#54c7f5"/><text transform="translate(0 118.183)" fill="#003189" font-size="27" font-family="Lato-Black, Lato Black" font-weight="800"><tspan x="0" y="0">EcoMar</tspan></text><path d="M6.644 50.349a30.838 30.838 0 0 0 32.427 7.588 30.391 30.391 0 0 0 19.5-21.571 30.3 30.3 0 0 1-20.037 32.7 30.794 30.794 0 0 1-22.305-.664 18.09 18.09 0 0 1-7.241-6.779c-3.153-5.011-2.344-11.274-2.344-11.274z" fill="#009cdc"/><path d="M28.005 60.721a35.991 35.991 0 0 0 43.2-26.612 35.48 35.48 0 0 0 .831-5.3 35.165 35.165 0 0 1 3.353 24.938A36 36 0 0 1 4.478 42.893a35.84 35.84 0 0 0 23.527 17.828z" fill="#0063b0"/><path d="M32.409 63.603a43.8 43.8 0 0 0 52.573-32.387 43.291 43.291 0 0 0 1.059-7.128 42.8 42.8 0 0 1 3.921 30.062A43.813 43.813 0 0 1 3.616 41.619a43.618 43.618 0 0 0 28.793 21.984z" fill="#003189"/><path d="M7.767 57.563a21.168 21.168 0 0 0 22.484 4.08 20.82 20.82 0 0 0 12.6-15.451 20.757 20.757 0 0 1-12.577 23.1 21.127 21.127 0 0 1-15.306.315 12.433 12.433 0 0 1-5.2-4.395 13.12 13.12 0 0 1-2.001-7.649z" fill="#54c7f5" opacity=".3"/><path d="M6.72 50.349a30.838 30.838 0 0 0 32.427 7.588 30.391 30.391 0 0 0 19.5-21.571 30.3 30.3 0 0 1-20.037 32.7 30.8 30.8 0 0 1-22.306-.664 18.09 18.09 0 0 1-7.241-6.779C5.912 56.612 6.72 50.349 6.72 50.349z" fill="#009cdc" opacity=".3"/><path d="M28.082 60.721a35.991 35.991 0 0 0 43.2-26.612 35.539 35.539 0 0 0 .831-5.3 35.162 35.162 0 0 1 3.352 24.938A36 36 0 0 1 4.554 42.893a35.841 35.841 0 0 0 23.528 17.828z" fill="#0063b0" opacity=".3"/><path d="M32.485 63.603a43.8 43.8 0 0 0 52.574-32.387 43.241 43.241 0 0 0 1.059-7.128A42.793 42.793 0 0 1 90.04 54.15 43.813 43.813 0 0 1 3.694 41.619a43.62 43.62 0 0 0 28.791 21.984z" fill="#003189" opacity=".3"/><path d="M91.469 41.301A43.951 43.951 0 1 1 45.343.057a43.678 43.678 0 0 1 46.126 41.244z" fill="#00a1ed" opacity=".05"/></svg>