<svg xmlns="http://www.w3.org/2000/svg" width="93.231" height="118.399" viewBox="0 0 93.231 118.399"><g transform="translate(-17.191 -61.419)"><path d="M23.261,118.982a21.168,21.168,0,0,0,22.484,4.08,20.819,20.819,0,0,0,12.6-15.451,20.758,20.758,0,0,1-12.577,23.1,21.127,21.127,0,0,1-15.306.315,12.436,12.436,0,0,1-5.2-4.395A13.124,13.124,0,0,1,23.261,118.982Z" fill="#54c7f5"/><path d="M14.283-19.67v3.51H6.21v4.59h6.183v3.375H6.21V-3.51h8.073V0H1.62V-19.67Zm12.69,8.991a2.314,2.314,0,0,1-.364.365.8.8,0,0,1-.5.135,1.075,1.075,0,0,1-.56-.148l-.56-.331a4.25,4.25,0,0,0-.729-.331,3.138,3.138,0,0,0-1.04-.148,2.912,2.912,0,0,0-1.33.283,2.463,2.463,0,0,0-.925.81,3.7,3.7,0,0,0-.54,1.289,7.7,7.7,0,0,0-.175,1.721,5.245,5.245,0,0,0,.776,3.092,2.491,2.491,0,0,0,2.14,1.08,2.991,2.991,0,0,0,1.154-.182,3.5,3.5,0,0,0,.722-.4l.547-.412a1.011,1.011,0,0,1,.628-.189.865.865,0,0,1,.756.365l1.215,1.5A6.611,6.611,0,0,1,26.825-.979,6.84,6.84,0,0,1,25.36-.25a7.56,7.56,0,0,1-1.505.365,11.083,11.083,0,0,1-1.472.1,6.314,6.314,0,0,1-2.45-.486,6,6,0,0,1-2.052-1.411,6.757,6.757,0,0,1-1.4-2.275,8.521,8.521,0,0,1-.52-3.078,8.646,8.646,0,0,1,.452-2.828,6.421,6.421,0,0,1,1.337-2.282,6.214,6.214,0,0,1,2.187-1.519,7.664,7.664,0,0,1,3.017-.554,7.356,7.356,0,0,1,2.889.526A6.932,6.932,0,0,1,28.08-12.15Zm9.261-3.537a8.085,8.085,0,0,1,2.9.5,6.366,6.366,0,0,1,2.248,1.431,6.446,6.446,0,0,1,1.458,2.261,8.158,8.158,0,0,1,.52,2.99,8.305,8.305,0,0,1-.52,3.017,6.491,6.491,0,0,1-1.458,2.282A6.4,6.4,0,0,1,39.137-.29a7.989,7.989,0,0,1-2.9.506A8.082,8.082,0,0,1,33.311-.29a6.522,6.522,0,0,1-2.268-1.445,6.4,6.4,0,0,1-1.472-2.282,8.305,8.305,0,0,1-.52-3.017,8.158,8.158,0,0,1,.52-2.99,6.353,6.353,0,0,1,1.472-2.261,6.491,6.491,0,0,1,2.268-1.431A8.18,8.18,0,0,1,36.234-14.215Zm0,11.326A2.377,2.377,0,0,0,38.36-3.908a5.637,5.637,0,0,0,.682-3.1A5.6,5.6,0,0,0,38.36-10.1a2.382,2.382,0,0,0-2.126-1.012A2.441,2.441,0,0,0,34.061-10.1a5.557,5.557,0,0,0-.688,3.092,5.592,5.592,0,0,0,.688,3.1A2.436,2.436,0,0,0,36.234-2.889Zm19.48-6.1q.27.513.52,1.067t.479,1.134q.229-.594.486-1.154t.526-1.087l5.049-9.936a1.65,1.65,0,0,1,.277-.4.906.906,0,0,1,.317-.209,1.33,1.33,0,0,1,.4-.081q.223-.014.52-.014H67.77V0H63.747V-11.313q0-.823.081-1.782L58.617-2.984a1.717,1.717,0,0,1-.655.716,1.811,1.811,0,0,1-.938.243H56.4a1.811,1.811,0,0,1-.938-.243,1.717,1.717,0,0,1-.655-.716L49.572-13.109q.054.473.081.938t.027.857V0H45.657V-19.67H49.14q.3,0,.52.014a1.33,1.33,0,0,1,.4.081.906.906,0,0,1,.317.209,1.65,1.65,0,0,1,.277.4ZM80.676,0a1.961,1.961,0,0,1-.9-.162,1.238,1.238,0,0,1-.506-.675l-.3-.77q-.526.446-1.012.783a6.417,6.417,0,0,1-1.006.574A4.967,4.967,0,0,1,75.85.1a6.813,6.813,0,0,1-1.3.115,5.712,5.712,0,0,1-1.742-.25,3.633,3.633,0,0,1-1.33-.736,3.235,3.235,0,0,1-.844-1.208,4.357,4.357,0,0,1-.3-1.667,3.5,3.5,0,0,1,.378-1.525,3.763,3.763,0,0,1,1.31-1.424,8.323,8.323,0,0,1,2.511-1.073,16.848,16.848,0,0,1,3.982-.486v-.594a2.567,2.567,0,0,0-.506-1.775,1.862,1.862,0,0,0-1.438-.547,3.814,3.814,0,0,0-1.215.162,5.462,5.462,0,0,0-.844.365q-.371.2-.722.365a1.984,1.984,0,0,1-.837.162,1.265,1.265,0,0,1-.736-.209,1.554,1.554,0,0,1-.479-.52l-.756-1.309A8.51,8.51,0,0,1,73.8-13.723a9.868,9.868,0,0,1,3.314-.547,6.061,6.061,0,0,1,2.288.412,4.924,4.924,0,0,1,1.728,1.148,5.014,5.014,0,0,1,1.087,1.748,6.283,6.283,0,0,1,.378,2.214V0ZM75.87-2.551a3.321,3.321,0,0,0,1.417-.283,4.318,4.318,0,0,0,1.229-.918V-5.7a13.894,13.894,0,0,0-2.065.216,5.017,5.017,0,0,0-1.283.405,1.552,1.552,0,0,0-.655.553,1.31,1.31,0,0,0-.182.675,1.173,1.173,0,0,0,.391,1.006A1.91,1.91,0,0,0,75.87-2.551ZM85.563,0V-14h2.484a2.118,2.118,0,0,1,.52.054.912.912,0,0,1,.351.169.72.72,0,0,1,.216.3,2.739,2.739,0,0,1,.128.459l.229,1.309a6.86,6.86,0,0,1,1.728-1.877,3.511,3.511,0,0,1,2.093-.689,2.411,2.411,0,0,1,1.539.459l-.54,3.078a.6.6,0,0,1-.216.4.733.733,0,0,1-.432.115,2.865,2.865,0,0,1-.54-.061,4.186,4.186,0,0,0-.783-.061,2.874,2.874,0,0,0-2.592,1.755V0Z" transform="translate(15.571 179.602)" fill="#003189"/><path d="M22.215,111.768a30.838,30.838,0,0,0,32.427,7.588,30.391,30.391,0,0,0,19.5-21.571,30.3,30.3,0,0,1-20.037,32.7,30.794,30.794,0,0,1-22.305-.664,18.09,18.09,0,0,1-7.241-6.779C21.406,118.031,22.215,111.768,22.215,111.768Z" fill="#009cdc"/><path d="M43.576,122.14a35.991,35.991,0,0,0,43.2-26.612,35.48,35.48,0,0,0,.831-5.3,35.165,35.165,0,0,1,3.353,24.938,36,36,0,0,1-70.911-10.854A35.84,35.84,0,0,0,43.576,122.14Z" fill="#0063b0"/><path d="M47.98,125.022a43.8,43.8,0,0,0,52.573-32.387,43.291,43.291,0,0,0,1.059-7.128,42.8,42.8,0,0,1,3.921,30.062,43.813,43.813,0,0,1-86.346-12.531A43.618,43.618,0,0,0,47.98,125.022Z" fill="#003189"/><path d="M23.338,118.982a21.168,21.168,0,0,0,22.484,4.08,20.82,20.82,0,0,0,12.6-15.451,20.757,20.757,0,0,1-12.577,23.1,21.127,21.127,0,0,1-15.306.315,12.433,12.433,0,0,1-5.2-4.395A13.12,13.12,0,0,1,23.338,118.982Z" fill="#54c7f5" opacity="0.3"/><path d="M22.291,111.768a30.838,30.838,0,0,0,32.427,7.588,30.391,30.391,0,0,0,19.5-21.571,30.3,30.3,0,0,1-20.037,32.7,30.8,30.8,0,0,1-22.306-.664,18.09,18.09,0,0,1-7.241-6.779C21.483,118.031,22.291,111.768,22.291,111.768Z" fill="#009cdc" opacity="0.3"/><path d="M43.653,122.14a35.991,35.991,0,0,0,43.2-26.612,35.539,35.539,0,0,0,.831-5.3,35.162,35.162,0,0,1,3.352,24.938,36,36,0,0,1-70.911-10.854A35.841,35.841,0,0,0,43.653,122.14Z" fill="#0063b0" opacity="0.3"/><path d="M48.056,125.022A43.8,43.8,0,0,0,100.63,92.635a43.241,43.241,0,0,0,1.059-7.128,42.793,42.793,0,0,1,3.922,30.062,43.813,43.813,0,0,1-86.346-12.531A43.62,43.62,0,0,0,48.056,125.022Z" fill="#003189" opacity="0.3"/><path d="M107.04,102.72A43.951,43.951,0,1,1,60.914,61.476,43.678,43.678,0,0,1,107.04,102.72Z" fill="#00a1ed" opacity="0.05"/></g></svg>